<svg xmlns="http://www.w3.org/2000/svg" viewBox="0 0 61.46 41.13"><defs><style>.cls-1{fill:#384048;}</style></defs><g id="Ebene_2" data-name="Ebene 2"><g id="Ebene_1-2" data-name="Ebene 1"><path class="cls-1" d="M5.21,10h0A5.08,5.08,0,0,1,0,5.1V4.94A5.08,5.08,0,0,1,5.21,0h0a5.08,5.08,0,0,1,5.21,4.94V5.1A5.08,5.08,0,0,1,5.21,10Z"/><path class="cls-1" d="M46.31,12c-5.44,0-11.93,2.12-14.23,9.76l-2.27,7.58a.17.17,0,0,1-.33,0l-1.85-7.76s0,0,0,0C26,15.34,23.84,12.2,18.46,12.2a11.93,11.93,0,0,0-7.38,2.22c-1.13.85-1.29.8-1.39-.31,0,0,0-1.15-1.76-1.15H2.85a2,2,0,0,0-2,2V38.43a2,2,0,0,0,2,2H8.16a2,2,0,0,0,2-2V25.62c0-3.42,1.78-5.66,4.54-5.66,2.55,0,3.12,1.26,4.36,5.21L23.4,39a2,2,0,0,0,1.89,1.39H34a2,2,0,0,0,1.9-1.4l4.65-14.85c1.61-4.31,3.45-4.83,5.75-4.83,3.26,0,5.35,2.09,5.35,7.2S49.67,34,46.31,34a5.84,5.84,0,0,1-4.08-1.51,1.13,1.13,0,0,0-1.87.43l-1.63,4.76a2,2,0,0,0,1.15,2.5,17,17,0,0,0,6.43,1c9.28,0,15.15-5.77,15.15-14.49C61.46,18.37,55.69,12,46.31,12Z"/></g></g></svg>